<svg width="85" height="84" viewBox="0 0 85 84" fill="none" xmlns="http://www.w3.org/2000/svg">
<path d="M83.3 3.2C83.1432 2.90354 82.9407 2.63358 82.7 2.4H82.6L82 2V2C76.6 -1.4 53.1 1 36.3 17.8C34.0705 20.0266 32.0301 22.435 30.2 25H28.4C22.365 24.628 16.3702 26.2055 11.3 29.5L2.8 34.8C2.31872 35.1276 1.94317 35.5882 1.71913 36.1255C1.49509 36.6629 1.43224 37.2538 1.53825 37.8262C1.64426 38.3987 1.91455 38.9279 2.31615 39.3494C2.71776 39.7709 3.23333 40.0665 3.8 40.2L21 44.2V44.5L12 50.6C11.887 50.6865 11.7938 50.7962 11.7266 50.9216C11.6594 51.047 11.6198 51.1854 11.6103 51.3274C11.6008 51.4693 11.6218 51.6117 11.6717 51.745C11.7217 51.8782 11.7995 51.9992 11.9 52.1L17.8 58L13 58.3H12.6C10.9434 59.1687 9.4265 60.2811 8.1 61.6C2 67.7 1.29999 77.6 3.19999 80.6L3.49999 81H3.6L3.99999 81.3C5.44355 82.0629 7.0709 82.4091 8.69999 82.3C14.0607 82.2569 19.206 80.1845 23.1 76.5C24.3687 75.2287 25.4465 73.7803 26.3 72.2C26.3608 72.0751 26.3948 71.9388 26.4 71.8L26.8 66.7L32.8 72.7C32.9846 72.8884 33.2362 72.9962 33.5 73H33.6C33.738 72.9856 33.8716 72.9425 33.9921 72.8737C34.1126 72.8048 34.2175 72.7116 34.3 72.6L40.5 63.7H40.8L44.8 80.9C44.9288 81.4773 45.2253 82.0036 45.6523 82.4128C46.0793 82.822 46.6178 83.0959 47.2 83.2H47.7C48.2004 83.1937 48.6913 83.0623 49.1279 82.8178C49.5646 82.5732 49.9331 82.2234 50.2 81.8L55.7 73.3C58.9944 68.2298 60.572 62.235 60.2 56.2V54.7C62.7648 52.8695 65.173 50.8292 67.4 48.6C83.7 32.3 86.5 8.8 83.3 3.2ZM81 3.5H81.4L81.6 3.9C83.4 7 82.9 17.1 78.4 27.9C77.5707 22.5215 75.049 17.5472 71.2009 13.6991C67.3528 9.85098 62.3785 7.32928 57 6.5C68.1 2.1 78.2 1.8 81 3.5ZM4.19999 38.3C4.01345 38.2511 3.84504 38.1493 3.71504 38.0068C3.58504 37.8643 3.499 37.6873 3.4673 37.4971C3.4356 37.3069 3.45957 37.1115 3.53634 36.9346C3.61311 36.7577 3.7394 36.6068 3.89999 36.5L12.4 31C17.1089 27.9232 22.6859 26.4501 28.3 26.8H29C25.8481 31.6107 23.359 36.8243 21.6 42.3L4.19999 38.3ZM24.5 71.8C23.7676 73.117 22.8592 74.3281 21.8 75.4C16 81.2 7 81.3 5.1 80H4.99999C3.89999 78.2 3.7 69.3 9.6 63.4C10.7268 62.2904 12.0064 61.3476 13.4 60.6L19.8 60.2L25 65.2L24.5 71.8ZM33.4 70.8L14.2 51.6L21.5 46.5L38.4 63.4C38.3933 63.4665 38.3933 63.5335 38.4 63.6L33.4 70.8ZM58.3 56.7C58.6428 62.3134 57.1702 67.8881 54.1 72.6L48.6 81.1C48.4932 81.2606 48.3423 81.3869 48.1654 81.4637C47.9884 81.5404 47.7931 81.5644 47.6029 81.5327C47.4127 81.501 47.2356 81.415 47.0932 81.285C46.9507 81.155 46.8489 80.9865 46.8 80.8L42.8 63.5C48.2467 61.7025 53.4265 59.1798 58.2 56L58.3 56.7ZM40 62.2L22.8 45C25.499 35.2466 30.6252 26.3361 37.7 19.1C42.2174 14.6215 47.4575 10.9365 53.2 8.2C56.3077 8.21306 59.3822 8.83976 62.247 10.0441C65.1118 11.2485 67.7106 13.0069 69.8941 15.2182C72.0776 17.4296 73.8028 20.0505 74.9707 22.9303C76.1387 25.8102 76.7264 28.8924 76.7 32C73.9714 37.6624 70.3218 42.8327 65.9 47.3C58.6666 54.3783 49.7551 59.505 40 62.2V62.2Z" fill="black" stroke="black"/>
<path d="M47.6 23.8C46.2607 25.1439 45.3497 26.8545 44.982 28.7158C44.6143 30.5771 44.8064 32.5057 45.5339 34.2579C46.2615 36.0101 47.492 37.5075 49.07 38.5609C50.648 39.6142 52.5027 40.1764 54.4 40.1764C56.2973 40.1764 58.152 39.6142 59.73 38.5609C61.308 37.5075 62.5385 36.0101 63.266 34.2579C63.9936 32.5057 64.1857 30.5771 63.818 28.7158C63.4502 26.8545 62.5392 25.1439 61.2 23.8C60.3081 22.905 59.2484 22.1949 58.0815 21.7104C56.9146 21.2258 55.6635 20.9764 54.4 20.9764C53.1365 20.9764 51.8854 21.2258 50.7185 21.7104C49.5516 22.1949 48.4919 22.905 47.6 23.8V23.8ZM59.8 36C58.7342 37.0555 57.3799 37.772 55.9077 38.0593C54.4354 38.3466 52.9111 38.1918 51.5267 37.6144C50.1423 37.037 48.9597 36.0629 48.1278 34.8147C47.296 33.5665 46.8521 32.1 46.8521 30.6C46.8521 29.1 47.296 27.6335 48.1278 26.3853C48.9597 25.1371 50.1423 24.163 51.5267 23.5856C52.9111 23.0082 54.4354 22.8534 55.9077 23.1407C57.3799 23.428 58.7342 24.1445 59.8 25.2C60.5135 25.9067 61.08 26.7477 61.4665 27.6746C61.8531 28.6015 62.0521 29.5958 62.0521 30.6C62.0521 31.6042 61.8531 32.5985 61.4665 33.5254C61.08 34.4523 60.5135 35.2933 59.8 36V36Z" fill="black" stroke="black"/>
</svg>
